<svg width="30" height="30" viewBox="0 0 30 30" fill="none" xmlns="http://www.w3.org/2000/svg">
<path fill-rule="evenodd" clip-rule="evenodd" d="M4.44446 28C3.89217 28 3.44446 27.5523 3.44446 27V11.1667C3.44446 10.8519 3.59265 10.5555 3.84446 10.3667L14.4 2.45C14.7556 2.18333 15.2445 2.18333 15.6 2.45L26.1556 10.3667C26.4074 10.5555 26.5556 10.8519 26.5556 11.1667V27C26.5556 27.5523 26.1079 28 25.5556 28H4.44446ZM6.74786 11.8117C6.48754 11.9997 6.33335 12.3013 6.33335 12.6224V24.1111C6.33335 24.6634 6.78106 25.1111 7.33335 25.1111H22.6667C23.219 25.1111 23.6667 24.6634 23.6667 24.1111V12.6224C23.6667 12.3013 23.5125 11.9997 23.2522 11.8117L15.5855 6.27471C15.236 6.02228 14.764 6.02228 14.4145 6.27471L6.74786 11.8117Z" fill="black" stroke="black"/>
</svg>
